<?xml version="1.0" encoding="UTF-8"?>
<svg id="Layer_1" xmlns="http://www.w3.org/2000/svg" version="1.1" viewBox="0 0 455 159.71">
  <!-- Generator: Adobe Illustrator 29.2.0, SVG Export Plug-In . SVG Version: 2.1.0 Build 108)  -->
  <path d="M0,4.27h23.25l54.92,82.23V4.27h20.28v115.12h-23.09L20.45,36.84v82.55H0V4.27Z"/>
  <path d="M106.36,78.28c0-24.5,13.69-43.75,43.54-43.75s43.54,19.24,43.54,43.75-13.69,43.75-43.54,43.75-43.54-19.24-43.54-43.75ZM170.86,78.28c0-18.25-7.25-29.93-20.95-29.93s-20.78,11.68-20.78,29.93,7.09,29.93,20.78,29.93,20.95-11.68,20.95-29.93Z"/>
  <path d="M200.2,78.78c0-25.66,14.35-44.24,43.05-44.24,26.72,0,40.9,17.1,40.9,43.41v4.61h-61.85c.33,16.12,8.08,25.98,20.78,25.98,8.58,0,14.68-4.61,17.48-12.17h22.26c-3.63,15.29-17.15,25.66-39.58,25.66-29.35,0-43.05-18.42-43.05-43.25h0ZM262.05,68.75v-.16c0-12.67-7.92-20.72-18.8-20.72-11.88,0-19.46,8.56-20.62,20.89h39.43Z"/>
  <path d="M297.18,92.42v-41.11h-12.7v-14.14h12.7v-19.56l20.95-3.78v23.35h17.82v14.14h-17.82v38.98c0,10.19,3.46,14.14,12.87,14.14l4.95-.33v15.29c-3.63.5-6.76.66-9.23.66-19.46,0-29.52-7.4-29.52-27.63h-.01Z"/>
  <path d="M340.38,12.83c0-7.07,5.77-12.83,13.03-12.83s12.87,5.76,12.87,12.83-5.61,12.67-12.87,12.67-13.03-5.6-13.03-12.67ZM342.86,37.17h21.11v82.23h-21.11V37.17Z"/>
  <path d="M433.89,108.54c-5.94,8.22-15.01,12.99-26.22,12.99-23.25,0-35.95-18.41-35.95-43.91s12.37-43.09,35.95-43.09c11.55,0,20.62,4.44,26.22,12.99v-10.36h21.11v111.83h-21.11v-40.45h0ZM434.22,78.12c0-17.76-6.43-29.6-19.96-29.6s-19.79,11.84-19.79,29.6,6.27,29.43,19.79,29.43,19.96-12.33,19.96-29.43Z"/>
</svg>